<svg xmlns="http://www.w3.org/2000/svg" width="1595" height="195" fill="none" viewBox="0 0 1595 195">
  <path fill="#303866" d="M175.604 65.512v4.394c-1.465.488-2.686.977-3.663 1.465-.813.488-1.627 1.22-2.441 2.197-.814.977-1.628 2.36-2.441 4.15a977.677 977.677 0 0 0-3.174 7.08l-38.33 96.436c-1.14 2.767-2.116 5.046-2.93 6.836-.651 1.791-1.302 3.174-1.953 4.151-.488.976-.977 1.627-1.465 1.953-.488.488-.977.732-1.465.732-.976 0-1.79-.732-2.441-2.197-.651-1.302-2.116-4.557-4.395-9.766L85.76 117.27l-31.494 66.894c-3.256 7.162-5.534 10.742-6.836 10.742-1.628 0-4.07-4.069-7.325-12.207L2.508 87.24c-1.465-3.58-2.767-6.429-3.906-8.545-1.14-2.278-2.28-3.987-3.418-5.127-.977-1.302-2.035-2.197-3.174-2.685-1.14-.489-2.523-.814-4.15-.977v-4.394h50.048v4.394c-4.883.651-8.3 1.628-10.254 2.93-1.79 1.14-2.685 3.174-2.685 6.103 0 2.605.65 5.372 1.953 8.301l27.344 72.998L79.9 104.574l-5.615-15.625c-1.465-3.743-2.848-6.754-4.15-9.033-1.14-2.441-2.442-4.313-3.907-5.615-1.302-1.302-2.848-2.279-4.638-2.93-1.79-.65-3.988-1.14-6.592-1.465v-4.394h56.397v4.394c-6.348.814-10.58 1.953-12.696 3.418-2.116 1.302-3.174 3.418-3.174 6.348v2.441c.163.489.326 1.302.489 2.442.325.976.814 2.36 1.465 4.15.65 1.79 1.546 4.313 2.685 7.568l23.438 62.5 25.146-62.011c1.628-3.744 2.767-7.162 3.418-10.254.814-3.255 1.221-6.022 1.221-8.301s-.895-3.988-2.686-5.127c-1.79-1.302-5.045-2.36-9.765-3.174v-4.394h34.668Zm125.732 81.787c-5.859 15.299-13.835 26.855-23.926 34.668-9.928 7.812-21.647 11.719-35.156 11.719-7.975 0-15.218-1.465-21.729-4.395-6.347-2.93-11.8-7.08-16.357-12.451-4.557-5.371-8.057-11.882-10.498-19.531-2.441-7.65-3.662-16.276-3.662-25.879 0-10.254 1.383-19.613 4.15-28.076 2.93-8.464 6.918-15.707 11.963-21.729 5.208-6.185 11.393-10.986 18.555-14.404 7.161-3.418 15.055-5.127 23.681-5.127 7.325 0 13.998 1.383 20.02 4.15 6.185 2.767 11.393 6.673 15.625 11.719 1.79 2.279 3.255 4.557 4.394 6.836 1.303 2.278 2.361 4.801 3.174 7.568.977 2.767 1.791 5.86 2.442 9.278.651 3.417 1.302 7.324 1.953 11.718h-85.694c.326 8.952 1.058 16.358 2.198 22.217 1.302 5.697 3.336 11.231 6.103 16.602 7.976 14.974 19.694 22.461 35.157 22.461 8.951 0 16.682-2.198 23.193-6.592 6.673-4.395 13.346-11.882 20.019-22.461l4.395 1.709Zm-33.691-43.213c-1.791-12.044-4.721-20.345-8.79-24.902-3.906-4.72-10.091-7.08-18.554-7.08-8.627 0-15.381 2.522-20.264 7.568-4.72 5.045-7.812 13.184-9.277 24.414h56.885Zm44.433-91.309a886.135 886.135 0 0 1 12.94-2.93 342.416 342.416 0 0 0 10.986-2.929 423.101 423.101 0 0 0 10.254-2.93A189.169 189.169 0 0 0 356.512.57l1.22.733v166.259c0 3.907.245 7.081.733 9.522.488 2.279 1.465 4.15 2.93 5.615 1.464 1.302 3.499 2.279 6.103 2.93 2.767.651 6.348 1.139 10.742 1.465V191h-65.429v-3.906c4.394-.489 7.975-1.058 10.742-1.709 2.767-.814 4.964-1.953 6.592-3.418 1.627-1.628 2.685-3.662 3.173-6.104.651-2.441.977-5.534.977-9.277V33.773c0-6.51-.895-10.905-2.686-13.183-1.627-2.442-4.638-3.662-9.033-3.662-1.302 0-2.767.081-4.394.244-1.465 0-2.93.081-4.395.244h-1.709v-4.639Zm77.637 0a889.242 889.242 0 0 1 12.939-2.93 341.801 341.801 0 0 0 10.987-2.929 425.68 425.68 0 0 0 10.254-2.93A188.857 188.857 0 0 0 434.148.57l1.221.733v166.259c0 3.907.244 7.081.733 9.522.488 2.279 1.464 4.15 2.929 5.615 1.465 1.302 3.5 2.279 6.104 2.93 2.767.651 6.347 1.139 10.742 1.465V191h-65.43v-3.906c4.395-.489 7.976-1.058 10.742-1.709 2.767-.814 4.965-1.953 6.592-3.418 1.628-1.628 2.686-3.662 3.174-6.104.651-2.441.977-5.534.977-9.277V33.773c0-6.51-.896-10.905-2.686-13.183-1.628-2.442-4.639-3.662-9.033-3.662a44.59 44.59 0 0 0-4.395.244 39.71 39.71 0 0 0-4.394.244h-1.709v-4.639Zm187.256 137.207c-2.279 4.395-4.395 8.22-6.348 11.475a130.675 130.675 0 0 1-5.371 8.545c-1.628 2.441-3.337 4.639-5.127 6.592a45.88 45.88 0 0 1-5.859 5.371c-9.766 7.812-20.59 11.719-32.471 11.719-7.65 0-14.73-1.465-21.24-4.395-6.511-3.092-12.126-7.406-16.846-12.939-4.557-5.534-8.138-12.045-10.742-19.532-2.604-7.487-3.906-15.787-3.906-24.902 0-11.556 1.953-22.135 5.859-31.738 4.069-9.766 9.847-17.741 17.334-23.926 5.697-4.72 11.719-8.22 18.066-10.498 6.511-2.441 13.103-3.662 19.776-3.662 5.859 0 11.393.814 16.601 2.441 5.209 1.465 9.766 3.5 13.672 6.104 3.906 2.604 6.999 5.696 9.277 9.277 2.279 3.418 3.418 7.08 3.418 10.986 0 3.256-1.302 6.104-3.906 8.545-2.441 2.442-5.452 3.662-9.033 3.662-3.255 0-6.022-1.22-8.301-3.662-2.278-2.441-3.987-5.696-5.127-9.765l-1.709-6.104c-1.302-5.208-3.174-8.708-5.615-10.498-2.279-1.79-5.941-2.686-10.986-2.686-5.697 0-10.905 1.221-15.625 3.663-4.558 2.278-8.464 5.615-11.719 10.01-3.255 4.394-5.859 9.602-7.813 15.624-1.79 6.023-2.685 12.696-2.685 20.02 0 7.812 1.058 15.055 3.174 21.728 2.116 6.674 5.045 12.37 8.789 17.09 3.743 4.72 8.219 8.464 13.428 11.231 5.371 2.604 11.23 3.906 17.578 3.906 7.975 0 14.892-1.872 20.752-5.615 5.859-3.906 12.125-10.742 18.798-20.508l3.907 2.441Zm78.613-87.158c8.952 0 17.171 1.546 24.658 4.639 7.487 3.092 13.916 7.487 19.287 13.183 5.534 5.534 9.847 12.126 12.94 19.776 3.092 7.65 4.638 16.113 4.638 25.39 0 9.766-1.627 18.799-4.882 27.1-3.093 8.138-7.406 15.3-12.94 21.484-5.534 6.023-12.125 10.743-19.775 14.161-7.487 3.418-15.625 5.127-24.414 5.127-8.789 0-16.927-1.628-24.414-4.883-7.487-3.255-13.916-7.813-19.287-13.672-5.372-5.86-9.603-12.777-12.696-20.752-3.092-7.975-4.638-16.683-4.638-26.123 0-9.603 1.464-18.392 4.394-26.367 3.093-8.138 7.324-15.056 12.695-20.752 5.371-5.86 11.801-10.336 19.288-13.428 7.649-3.255 16.031-4.883 25.146-4.883Zm-4.15 7.813c-9.766 0-17.579 3.987-23.438 11.963-5.859 7.975-8.789 18.554-8.789 31.738 0 9.928 1.058 19.612 3.174 29.053 2.116 9.277 5.127 17.578 9.033 24.902 2.93 5.697 6.836 10.091 11.719 13.184 4.883 3.092 10.172 4.638 15.869 4.638 10.254 0 18.229-4.476 23.926-13.428 5.859-9.114 8.789-21.565 8.789-37.353 0-11.882-1.709-22.949-5.127-33.203-3.418-10.254-8.057-17.985-13.916-23.194-3.093-2.93-6.348-5.045-9.766-6.347-3.418-1.302-7.243-1.953-11.474-1.953Zm79.101 4.638c3.906-.976 7.406-1.953 10.498-2.93a695.77 695.77 0 0 0 9.522-2.929 602.508 602.508 0 0 0 9.033-2.93c3.092-1.139 6.429-2.36 10.01-3.662l1.953.489V84.31c5.859-4.395 10.823-7.976 14.892-10.743 4.069-2.93 7.65-5.127 10.743-6.591 3.255-1.628 6.184-2.686 8.789-3.174 2.604-.651 5.452-.977 8.545-.977 15.136 0 24.983 7.894 29.541 23.682 7.812-8.301 15.299-14.323 22.46-18.067 7.325-3.743 15.056-5.615 23.194-5.615 21.647 0 32.471 16.439 32.471 49.317v57.617c0 10.579 4.069 16.113 12.207 16.601l7.08.733V191h-61.035v-3.906c4.069-.489 7.242-1.058 9.521-1.709 2.441-.814 4.232-1.872 5.371-3.174 1.302-1.465 2.116-3.418 2.441-5.859.489-2.442.733-5.697.733-9.766v-58.594c0-5.859-.326-10.742-.977-14.648-.651-3.906-1.79-6.999-3.418-9.278-1.627-2.441-3.824-4.15-6.591-5.127-2.605-1.139-5.86-1.708-9.766-1.708-6.51 0-12.126 1.383-16.846 4.15-4.72 2.604-9.196 6.917-13.427 12.94v70.312c0 4.232.244 7.812.732 10.742.651 2.767 1.709 5.046 3.174 6.836 1.627 1.628 3.743 2.848 6.347 3.662 2.605.651 5.86 1.058 9.766 1.221V191h-62.5v-3.906c3.906-.326 7.08-.814 9.522-1.465 2.604-.651 4.557-1.709 5.859-3.174 1.465-1.465 2.441-3.418 2.93-5.859.488-2.442.732-5.616.732-9.522v-60.547c0-19.53-6.022-29.296-18.066-29.296-5.209 0-10.661 1.139-16.358 3.417-5.534 2.28-9.928 5.046-13.183 8.301-2.442 2.767-3.663 4.395-3.663 4.883v78.613c0 5.534 1.221 9.278 3.663 11.231 2.604 1.953 7.649 3.092 15.136 3.418V191h-61.767v-3.906c3.906-.163 7.08-.57 9.521-1.221 2.604-.651 4.639-1.709 6.104-3.174 1.465-1.465 2.441-3.418 2.929-5.859.651-2.604.977-5.778.977-9.522V96.762c0-6.836-.732-11.475-2.197-13.916-1.302-2.605-3.825-3.907-7.569-3.907-1.627 0-3.092.163-4.394.489a213.4 213.4 0 0 0-4.639.732v-4.883ZM1060.37 147.3c-5.86 15.299-13.84 26.855-23.93 34.668-9.93 7.812-21.64 11.719-35.15 11.719-7.978 0-15.221-1.465-21.731-4.395-6.348-2.93-11.801-7.08-16.358-12.451s-8.056-11.882-10.498-19.531c-2.441-7.65-3.662-16.276-3.662-25.879 0-10.254 1.383-19.613 4.15-28.076 2.93-8.464 6.918-15.707 11.963-21.729 5.209-6.185 11.394-10.986 18.555-14.404 7.161-3.418 15.055-5.127 23.681-5.127 7.32 0 14 1.383 20.02 4.15 6.19 2.767 11.39 6.673 15.63 11.719 1.79 2.279 3.25 4.557 4.39 6.836 1.3 2.278 2.36 4.801 3.17 7.568.98 2.767 1.79 5.86 2.44 9.278.66 3.417 1.31 7.324 1.96 11.718h-85.695c.325 8.952 1.058 16.358 2.197 22.217 1.302 5.697 3.337 11.231 6.103 16.602 7.976 14.974 19.694 22.461 35.155 22.461 8.95 0 16.68-2.198 23.2-6.592 6.67-4.395 13.34-11.882 20.01-22.461l4.4 1.709Zm-33.69-43.213c-1.79-12.044-4.72-20.345-8.79-24.902-3.91-4.72-10.09-7.08-18.556-7.08-8.626 0-15.381 2.522-20.264 7.568-4.72 5.045-7.812 13.184-9.277 24.414h56.887Zm74.46 59.326c3.91 0 7.41 1.546 10.5 4.639 3.25 3.092 4.88 6.754 4.88 10.986 0 4.069-1.63 7.65-4.88 10.742-3.09 2.93-6.76 4.395-10.99 4.395s-7.89-1.465-10.98-4.395c-2.93-3.092-4.4-6.754-4.4-10.986 0-4.395 1.55-8.057 4.64-10.986 3.09-2.93 6.84-4.395 11.23-4.395Zm149.17-13.428c-2.28 4.395-4.39 8.22-6.35 11.475a130.678 130.678 0 0 1-5.37 8.545c-1.63 2.441-3.33 4.639-5.13 6.592a46.208 46.208 0 0 1-5.85 5.371c-9.77 7.812-20.59 11.719-32.48 11.719-7.64 0-14.73-1.465-21.24-4.395-6.51-3.092-12.12-7.406-16.84-12.939-4.56-5.534-8.14-12.045-10.74-19.532-2.61-7.487-3.91-15.787-3.91-24.902 0-11.556 1.95-22.135 5.86-31.738 4.07-9.766 9.85-17.741 17.33-23.926 5.7-4.72 11.72-8.22 18.07-10.498 6.51-2.441 13.1-3.662 19.78-3.662 5.85 0 11.39.814 16.6 2.441 5.21 1.465 9.76 3.5 13.67 6.104s7 5.696 9.28 9.277c2.27 3.418 3.41 7.08 3.41 10.986 0 3.256-1.3 6.104-3.9 8.545-2.44 2.442-5.45 3.662-9.04 3.662-3.25 0-6.02-1.22-8.3-3.662-2.27-2.441-3.98-5.696-5.12-9.765l-1.71-6.104c-1.3-5.208-3.18-8.708-5.62-10.498-2.28-1.79-5.94-2.686-10.98-2.686-5.7 0-10.91 1.221-15.63 3.663-4.56 2.278-8.46 5.615-11.72 10.01-3.25 4.394-5.86 9.602-7.81 15.624-1.79 6.023-2.69 12.696-2.69 20.02 0 7.812 1.06 15.055 3.18 21.728 2.11 6.674 5.04 12.37 8.79 17.09 3.74 4.72 8.22 8.464 13.43 11.231 5.37 2.604 11.23 3.906 17.57 3.906 7.98 0 14.9-1.872 20.76-5.615 5.85-3.906 12.12-10.742 18.79-20.508l3.91 2.441Zm111.57 11.719c0 6.185.57 10.498 1.71 12.94 1.14 2.278 3.34 3.418 6.59 3.418 3.75 0 7.82-1.709 12.21-5.127v7.08c-4.72 5.208-8.87 8.789-12.45 10.742-3.58 1.953-7.73 2.93-12.45 2.93-5.7 0-9.93-1.547-12.7-4.639-2.6-3.255-4.23-8.626-4.88-16.113-8.46 7.324-15.87 12.614-22.22 15.869-6.34 3.255-12.53 4.883-18.55 4.883-8.79 0-15.95-2.767-21.49-8.301-5.37-5.534-8.05-12.696-8.05-21.485 0-4.394.81-8.789 2.44-13.183 1.79-4.557 4.31-8.22 7.57-10.987 2.93-2.604 5.61-4.801 8.05-6.591 2.61-1.953 5.94-3.907 10.01-5.86 4.07-2.116 9.36-4.476 15.87-7.08a3677.33 3677.33 0 0 0 25.88-10.498V91.879c0-7.65-1.87-13.428-5.61-17.334-3.58-3.906-8.79-5.86-15.63-5.86-5.69 0-10.5 1.384-14.4 4.15-3.75 2.605-5.62 5.779-5.62 9.522 0 1.465.16 3.337.49 5.616.49 2.278.73 4.15.73 5.615 0 3.255-1.3 6.022-3.9 8.301-2.44 2.278-5.29 3.418-8.55 3.418-3.25 0-6.1-1.14-8.54-3.418-2.28-2.442-3.42-5.29-3.42-8.545 0-3.581.98-7.243 2.93-10.987 2.11-3.743 4.96-7.08 8.54-10.01 3.75-3.255 8.71-5.777 14.9-7.568 6.34-1.79 13.18-2.685 20.5-2.685 8.47 0 15.55 1.465 21.24 4.394 5.86 2.767 10.34 6.674 13.43 11.719 1.95 3.255 3.34 7.08 4.15 11.475.82 4.231 1.22 10.01 1.22 17.334v54.687Zm-22.46-45.166c-8.46 3.093-15.7 6.104-21.73 9.033-5.86 2.767-10.66 5.697-14.4 8.789-3.58 2.93-6.19 6.104-7.81 9.522-1.63 3.418-2.44 7.161-2.44 11.23v1.221c0 2.93.48 5.778 1.46 8.545.98 2.604 2.28 4.883 3.91 6.836 1.79 1.953 3.82 3.499 6.1 4.639 2.28 1.139 4.64 1.709 7.08 1.709 2.93 0 6.18-.57 9.77-1.709 3.74-1.303 7.24-2.849 10.49-4.639 3.26-1.79 5.29-3.662 6.11-5.615.97-1.953 1.46-5.046 1.46-9.278v-40.283Zm45.66-38.33a500.89 500.89 0 0 1 11.23-3.906 904.81 904.81 0 0 1 9.76-3.662c3.26-1.302 6.43-2.523 9.52-3.662 3.26-1.303 6.76-2.686 10.5-4.15l1.71.488V88.95c3.42-5.045 6.51-9.196 9.28-12.451 2.77-3.418 5.45-6.104 8.05-8.057 2.61-2.115 5.13-3.58 7.57-4.394 2.61-.814 5.37-1.22 8.3-1.22 4.72 0 8.47 1.383 11.23 4.15 2.77 2.604 4.15 6.103 4.15 10.498 0 4.069-.97 7.242-2.92 9.521-1.96 2.116-4.56 3.174-7.82 3.174-1.79 0-3.58-.326-5.37-.977-1.63-.813-3.58-2.36-5.86-4.638-1.46-1.302-2.85-2.279-4.15-2.93-1.3-.651-2.36-.977-3.17-.977-1.96 0-4.07.814-6.35 2.442-2.12 1.465-4.15 3.336-6.1 5.615a35.97 35.97 0 0 0-4.89 7.324c-1.3 2.605-1.95 5.046-1.95 7.325v62.744c0 3.906.33 7.161.98 9.765.65 2.604 1.87 4.72 3.66 6.348 1.79 1.465 4.23 2.604 7.32 3.418 3.1.814 7 1.302 11.72 1.465V191h-67.14v-3.906c4.4-.814 7.9-1.628 10.5-2.442 2.77-.976 4.8-2.116 6.11-3.418 1.46-1.302 2.36-3.011 2.68-5.127.49-2.278.73-5.127.73-8.545v-69.58c0-6.184-.73-10.498-2.19-12.939-1.47-2.604-3.91-3.906-7.33-3.906-1.79 0-3.42.081-4.88.244-1.3.163-2.93.488-4.88.976v-4.15ZM1594.3 147.3c-5.85 15.299-13.83 26.855-23.92 34.668-9.93 7.812-21.65 11.719-35.16 11.719-7.97 0-15.22-1.465-21.73-4.395-6.34-2.93-11.8-7.08-16.35-12.451-4.56-5.371-8.06-11.882-10.5-19.531-2.44-7.65-3.66-16.276-3.66-25.879 0-10.254 1.38-19.613 4.15-28.076 2.93-8.464 6.91-15.707 11.96-21.729 5.21-6.185 11.39-10.986 18.55-14.404 7.17-3.418 15.06-5.127 23.69-5.127 7.32 0 13.99 1.383 20.02 4.15 6.18 2.767 11.39 6.673 15.62 11.719 1.79 2.279 3.26 4.557 4.4 6.836 1.3 2.278 2.36 4.801 3.17 7.568.98 2.767 1.79 5.86 2.44 9.278.65 3.417 1.3 7.324 1.95 11.718h-85.69c.33 8.952 1.06 16.358 2.2 22.217 1.3 5.697 3.33 11.231 6.1 16.602 7.98 14.974 19.7 22.461 35.16 22.461 8.95 0 16.68-2.198 23.19-6.592 6.67-4.395 13.35-11.882 20.02-22.461l4.39 1.709Zm-33.69-43.213c-1.79-12.044-4.72-20.345-8.79-24.902-3.9-4.72-10.09-7.08-18.55-7.08-8.63 0-15.38 2.522-20.26 7.568-4.72 5.045-7.82 13.184-9.28 24.414h56.88Z"/>
</svg>
