<svg xmlns="http://www.w3.org/2000/svg" width="512" height="512" fill="none" viewBox="0 0 512 512">
  <path fill="#47A7F6" d="M256 512c141.385 0 256-114.615 256-256S397.385 0 256 0 0 114.615 0 256s114.615 256 256 256Z"/>
  <path fill="#fff" d="M442.207 158.023v8.789c-2.93.977-5.371 1.954-7.324 2.93-1.628.977-3.255 2.442-4.883 4.395-1.628 1.953-3.255 4.72-4.883 8.301-1.627 3.58-3.743 8.3-6.347 14.16l-76.661 192.871c-2.278 5.534-4.231 10.091-5.859 13.672-1.302 3.58-2.604 6.347-3.906 8.3-.977 1.954-1.953 3.256-2.93 3.907-.976.976-1.953 1.464-2.93 1.464-1.953 0-3.58-1.464-4.882-4.394-1.303-2.604-4.232-9.115-8.79-19.531L262.52 261.539l-62.989 133.789c-6.51 14.323-11.067 21.484-13.672 21.484-3.255 0-8.138-8.138-14.648-24.414L96.016 201.48c-2.93-7.161-5.534-12.858-7.813-17.089-2.279-4.558-4.557-7.976-6.836-10.254-1.953-2.604-4.069-4.395-6.348-5.371-2.278-.977-5.045-1.628-8.3-1.954v-8.789h100.097v8.789c-9.765 1.303-16.601 3.256-20.507 5.86-3.581 2.279-5.371 6.348-5.371 12.207 0 5.208 1.302 10.742 3.906 16.601l54.687 145.997 51.27-111.329-11.231-31.25c-2.929-7.487-5.696-13.509-8.3-18.066-2.279-4.883-4.883-8.626-7.813-11.23-2.604-2.605-5.697-4.558-9.277-5.86-3.581-1.302-7.976-2.278-13.184-2.93v-8.789h112.793v8.789c-12.695 1.628-21.159 3.907-25.391 6.836-4.231 2.605-6.347 6.836-6.347 12.696v4.883c.325.976.651 2.604.976 4.882.651 1.953 1.628 4.72 2.93 8.301 1.302 3.581 3.092 8.626 5.371 15.137l46.875 125 50.293-124.024c3.255-7.487 5.534-14.322 6.836-20.507 1.628-6.511 2.441-12.045 2.441-16.602s-1.79-7.975-5.371-10.254c-3.58-2.604-10.091-4.72-19.531-6.348v-8.789h69.336Z"/>
</svg>
